<svg width="24" height="24" viewBox="0 0 24 24" fill="none" xmlns="http://www.w3.org/2000/svg">
<path d="M10.1101 18.15H6.32007C5.91007 18.15 5.57007 17.81 5.57007 17.4V12.28C5.57007 11.24 6.42007 10.39 7.46007 10.39H10.1101C10.5201 10.39 10.8601 10.73 10.8601 11.14V17.39C10.8601 17.81 10.5201 18.15 10.1101 18.15ZM7.07007 16.65H9.36007V11.9H7.46007C7.35663 11.9 7.25744 11.9411 7.1843 12.0142C7.11116 12.0874 7.07007 12.1866 7.07007 12.29V16.65Z" fill="black"/>
<path d="M13.8921 18.152H10.1021C9.69205 18.152 9.35205 17.812 9.35205 17.402V7.742C9.35205 6.702 10.2021 5.852 11.2421 5.852H12.7621C13.8021 5.852 14.6521 6.702 14.6521 7.742V17.402C14.6421 17.812 14.3121 18.152 13.8921 18.152ZM10.8621 16.652H13.1521V7.742C13.1521 7.63857 13.111 7.53937 13.0378 7.46623C12.9647 7.39309 12.8655 7.352 12.7621 7.352H11.2421C11.1386 7.352 11.0394 7.39309 10.9663 7.46623C10.8931 7.53937 10.8521 7.63857 10.8521 7.742V16.652H10.8621Z" fill="black"/>
<path d="M17.6799 18.152H13.8899C13.4799 18.152 13.1399 17.812 13.1399 17.402V12.852C13.1399 12.442 13.4799 12.102 13.8899 12.102H16.5399C17.5799 12.102 18.4299 12.952 18.4299 13.992V17.402C18.4299 17.812 18.0999 18.152 17.6799 18.152ZM14.6399 16.652H16.9299V13.992C16.9299 13.9408 16.9198 13.8901 16.9002 13.8428C16.8806 13.7954 16.8519 13.7524 16.8157 13.7162C16.7794 13.68 16.7365 13.6513 16.6891 13.6317C16.6418 13.6121 16.5911 13.602 16.5399 13.602H14.6399V16.652Z" fill="black"/>
<path d="M15 22.75H9C3.57 22.75 1.25 20.43 1.25 15V9C1.25 3.57 3.57 1.25 9 1.25H15C20.43 1.25 22.75 3.57 22.75 9V15C22.75 20.43 20.43 22.75 15 22.75ZM9 2.75C4.39 2.75 2.75 4.39 2.75 9V15C2.75 19.61 4.39 21.25 9 21.25H15C19.61 21.25 21.25 19.61 21.25 15V9C21.25 4.39 19.61 2.75 15 2.75H9Z" fill="black"/>
</svg>
