<svg width="45" height="39" viewBox="0 0 45 39" fill="none" xmlns="http://www.w3.org/2000/svg">
<path d="M22.4999 13.2112V21.06M20.1562 3.98124C21.4687 3.02249 23.5874 3.02249 24.8624 3.98124L27.8249 6.17499C28.3874 6.58124 29.4562 6.92249 30.2062 6.92249H33.3937C35.3812 6.92249 37.0124 8.33624 37.0124 10.0587V12.8212C37.0124 13.4712 37.4062 14.3812 37.8749 14.8687L40.4062 17.4362C41.5124 18.5737 41.5124 20.41 40.4062 21.515L37.8749 24.0825C37.4062 24.57 37.0124 25.48 37.0124 26.13V28.8925C37.0124 30.615 35.3812 32.0287 33.3937 32.0287H30.2062C29.4562 32.0287 28.4062 32.37 27.8437 32.7762L24.8812 34.97C23.5687 35.9287 21.4499 35.9287 20.1749 34.97L17.2124 32.7762C16.6499 32.37 15.5812 32.0287 14.8499 32.0287H11.5687C9.58115 32.0287 7.9499 30.615 7.9499 28.8925V26.1137C7.9499 25.48 7.5749 24.5537 7.10615 24.0825L4.5749 21.4987C3.4874 20.3775 3.4874 18.5575 4.5749 17.4362L7.10615 14.8525C7.5749 14.365 7.9499 13.455 7.9499 12.8212V10.075C7.9499 8.35249 9.58115 6.93874 11.5687 6.93874H14.8124C15.5624 6.93874 16.6124 6.59749 17.1749 6.19124L20.1562 3.98124Z" stroke="black" stroke-width="1.5" stroke-linecap="round" stroke-linejoin="round"/>
<path d="M22.4907 26H22.5073" stroke="black" stroke-width="2" stroke-linecap="round" stroke-linejoin="round"/>
</svg>
