<svg width="24" height="24" viewBox="0 0 24 24" fill="none" xmlns="http://www.w3.org/2000/svg">
<path d="M6.18001 22.752C6.08001 22.752 5.97002 22.742 5.88001 22.732L3.71001 22.432C2.67001 22.292 1.73001 21.362 1.57001 20.302L1.27001 18.112C1.17001 17.412 1.47001 16.502 1.97001 15.992L6.36001 11.602C5.65001 8.762 6.47002 5.762 8.56002 3.692C11.8 0.461998 17.07 0.451998 20.32 3.692C21.0937 4.4628 21.7068 5.37936 22.1239 6.38865C22.541 7.39794 22.7538 8.47992 22.75 9.572C22.75 11.792 21.89 13.882 20.32 15.452C18.22 17.532 15.23 18.352 12.41 17.632L8.01002 22.022C7.59001 22.462 6.84001 22.752 6.18001 22.752ZM14.43 2.762C12.68 2.762 10.94 3.422 9.61001 4.752C8.72725 5.62909 8.10197 6.73152 7.80223 7.9393C7.50249 9.14708 7.53977 10.4139 7.91001 11.602C7.99001 11.872 7.92001 12.152 7.72001 12.352L3.02001 17.052C2.85001 17.222 2.71001 17.662 2.74001 17.892L3.04001 20.082C3.10001 20.462 3.51002 20.892 3.89001 20.942L6.07001 21.242C6.31001 21.282 6.75001 21.142 6.92001 20.972L11.64 16.262C11.84 16.062 12.13 16.002 12.39 16.082C14.8 16.842 17.43 16.192 19.23 14.392C20.51 13.112 21.22 11.392 21.22 9.572C21.22 7.742 20.51 6.032 19.23 4.752C18.6018 4.1186 17.854 3.61647 17.0299 3.27483C16.2059 2.93319 15.3221 2.75887 14.43 2.762Z" fill="black"/>
<path d="M9.18796 20.54C8.99796 20.54 8.80796 20.47 8.65796 20.32L6.35796 18.02C6.21848 17.8789 6.14026 17.6884 6.14026 17.49C6.14026 17.2916 6.21848 17.1011 6.35796 16.96C6.64796 16.67 7.12796 16.67 7.41796 16.96L9.71796 19.26C10.008 19.55 10.008 20.03 9.71796 20.32C9.56796 20.47 9.37796 20.54 9.18796 20.54ZM14.5 11.75C13.26 11.75 12.25 10.74 12.25 9.5C12.25 8.26 13.26 7.25 14.5 7.25C15.74 7.25 16.75 8.26 16.75 9.5C16.75 10.74 15.74 11.75 14.5 11.75ZM14.5 8.75C14.09 8.75 13.75 9.09 13.75 9.5C13.75 9.91 14.09 10.25 14.5 10.25C14.91 10.25 15.25 9.91 15.25 9.5C15.25 9.09 14.91 8.75 14.5 8.75Z" fill="black"/>
</svg>
