<svg width="65" height="56" viewBox="0 0 65 56" fill="none" xmlns="http://www.w3.org/2000/svg">
<path d="M39.2709 26.5953H25.7292C24.6188 26.5953 23.698 25.802 23.698 24.8453C23.698 23.8887 24.6188 23.0953 25.7292 23.0953H39.2709C40.3813 23.0953 41.3022 23.8887 41.3022 24.8453C41.3022 25.802 40.3813 26.5953 39.2709 26.5953Z" fill="black"/>
<path d="M32.5 32.5733C31.3896 32.5733 30.4688 31.78 30.4688 30.8233V19.1567C30.4688 18.2 31.3896 17.4067 32.5 17.4067C33.6104 17.4067 34.5312 18.2 34.5312 19.1567V30.8233C34.5312 31.78 33.6104 32.5733 32.5 32.5733Z" fill="black"/>
<path d="M51.6479 53.0833C50.2667 53.0833 48.75 52.7333 47.2875 52.01L34.0709 45.6867C33.2854 45.3133 31.7417 45.3133 30.9563 45.6867L17.7396 52.01C15.0584 53.2933 12.3229 53.4333 10.2375 52.36C8.15212 51.31 6.96045 49.1867 6.96045 46.55V13.6733C6.96045 7.74666 12.5667 2.91666 19.4459 2.91666H45.5813C52.4604 2.91666 58.0667 7.74666 58.0667 13.6733V46.55C58.0667 49.1867 56.875 51.31 54.7896 52.36C53.8417 52.85 52.7584 53.0833 51.6479 53.0833ZM32.5 41.9067C33.7729 41.9067 35.0188 42.14 36.0209 42.63L49.2375 48.9533C50.6188 49.63 51.8917 49.77 52.7042 49.35C53.5167 48.93 53.9771 47.9267 53.9771 46.55V13.6733C53.9771 9.68332 50.1854 6.41666 45.5542 6.41666H19.4459C17.2142 6.42281 15.0759 7.18932 13.4979 8.54888C11.9198 9.90844 11.0301 11.7506 11.0229 13.6733V46.55C11.0229 47.9267 11.4834 48.9533 12.2959 49.35C13.1084 49.7467 14.3813 49.63 15.7625 48.9533L28.9792 42.63C29.9813 42.14 31.2271 41.9067 32.5 41.9067Z" fill="black"/>
</svg>
