<svg width="24" height="24" viewBox="0 0 24 24" fill="none" xmlns="http://www.w3.org/2000/svg">
<path d="M12.1591 11.62H12.0791C12.0195 11.61 11.9586 11.61 11.8991 11.62C8.99905 11.53 6.80905 9.25 6.80905 6.44C6.80905 3.58 9.13905 1.25 11.9991 1.25C14.859 1.25 17.189 3.58 17.189 6.44C17.179 9.25 14.9791 11.53 12.1891 11.62H12.1591ZM11.9991 2.75C11.0212 2.75264 10.0842 3.14225 9.39274 3.83369C8.7013 4.52513 8.31169 5.46216 8.30905 6.44C8.30905 8.44 9.86905 10.05 11.8591 10.12C11.9091 10.11 12.0491 10.11 12.1791 10.12C14.1391 10.03 15.6791 8.42 15.6891 6.44C15.6864 5.46216 15.2968 4.52513 14.6054 3.83369C13.9139 3.14225 12.9769 2.75264 11.9991 2.75ZM12.1721 22.55C10.2121 22.55 8.24205 22.05 6.75205 21.05C5.36205 20.13 4.60205 18.87 4.60205 17.5C4.60205 16.13 5.36205 14.86 6.75205 13.93C9.75205 11.94 14.612 11.94 17.592 13.93C18.972 14.85 19.7421 16.11 19.7421 17.48C19.7421 18.85 18.982 20.12 17.592 21.05C16.092 22.05 14.1321 22.55 12.1721 22.55ZM7.58205 15.19C6.62205 15.83 6.10205 16.65 6.10205 17.51C6.10205 18.36 6.63205 19.18 7.58205 19.81C10.0721 21.48 14.272 21.48 16.762 19.81C17.722 19.17 18.2421 18.35 18.2421 17.49C18.2421 16.64 17.712 15.82 16.762 15.19C14.272 13.53 10.0721 13.53 7.58205 15.19Z" fill="black"/>
</svg>
