<svg width="24" height="24" viewBox="0 0 24 24" fill="none" xmlns="http://www.w3.org/2000/svg">
<path d="M12.12 13.53H11.95C9.68003 13.46 7.98003 11.69 7.98003 9.51001C7.98003 7.29001 9.79003 5.48001 12.01 5.48001C14.23 5.48001 16.04 7.29001 16.04 9.51001C16.0421 10.5545 15.6369 11.5586 14.9106 12.3092C14.1843 13.0598 13.194 13.4977 12.15 13.53H12.12ZM12 6.97001C10.6 6.97001 9.47003 8.11001 9.47003 9.50001C9.46702 10.1548 9.71897 10.785 10.1725 11.2572C10.6261 11.7295 11.2457 12.0066 11.9 12.03C11.9763 12.0195 12.0537 12.0195 12.13 12.03C12.7778 11.9955 13.3877 11.7139 13.8342 11.2433C14.2806 10.7726 14.5297 10.1487 14.53 9.50001C14.53 8.11001 13.4 6.97001 12 6.97001V6.97001ZM12 22.75C9.31003 22.75 6.74003 21.75 4.75003 19.93C4.66395 19.8508 4.59746 19.7526 4.55581 19.6433C4.51416 19.534 4.49849 19.4164 4.51003 19.3C4.64003 18.11 5.38003 17 6.61003 16.18C9.59003 14.2 14.42 14.2 17.39 16.18C18.62 17.01 19.36 18.11 19.49 19.3C19.52 19.54 19.43 19.77 19.25 19.93C17.2722 21.7455 14.6847 22.7519 12 22.75V22.75ZM6.08003 19.1C7.7393 20.4903 9.83532 21.2515 12 21.25C14.17 21.25 16.26 20.49 17.92 19.1C17.74 18.49 17.26 17.9 16.55 17.42C14.09 15.78 9.92003 15.78 7.44003 17.42C6.73003 17.9 6.26003 18.49 6.08003 19.1V19.1Z" fill="black"/>
<path d="M12 22.75C6.07 22.75 1.25 17.93 1.25 12C1.25 6.07 6.07 1.25 12 1.25C17.93 1.25 22.75 6.07 22.75 12C22.75 17.93 17.93 22.75 12 22.75ZM12 2.75C6.9 2.75 2.75 6.9 2.75 12C2.75 17.1 6.9 21.25 12 21.25C17.1 21.25 21.25 17.1 21.25 12C21.25 6.9 17.1 2.75 12 2.75Z" fill="black"/>
</svg>
