<svg width="65" height="56" viewBox="0 0 65 56" fill="none" xmlns="http://www.w3.org/2000/svg">
<path d="M19.4187 53.088C12.9729 53.088 7.69165 49.0513 7.69165 44.0813V39.3213C7.69165 38.3647 8.61248 37.5713 9.7229 37.5713C10.8333 37.5713 11.7542 38.3647 11.7542 39.3213C11.7542 42.238 15.0312 44.4313 19.4187 44.4313C23.8062 44.4313 27.0833 42.238 27.0833 39.3213C27.0833 38.3647 28.0041 37.5713 29.1146 37.5713C30.225 37.5713 31.1458 38.3647 31.1458 39.3213V44.0813C31.1458 49.0513 25.8916 53.088 19.4187 53.088ZM12.4583 46.368C13.65 48.2813 16.3312 49.588 19.4187 49.588C22.5062 49.588 25.1875 48.258 26.3791 46.368C24.4562 47.3713 22.0729 47.9547 19.4187 47.9547C16.7646 47.9547 14.3812 47.3713 12.4583 46.368Z" fill="black"/>
<path d="M19.4187 41.5357C14.9771 41.5357 10.9958 39.7857 9.01873 37.009C8.15207 35.7957 7.69165 34.3723 7.69165 32.9257C7.69165 30.4757 8.93748 28.189 11.2125 26.4857C15.6 23.1723 23.1562 23.1723 27.5708 26.4623C29.8458 28.189 31.1187 30.4757 31.1187 32.9257C31.1187 34.3723 30.6583 35.7957 29.7916 37.009C27.8417 39.7857 23.8604 41.5357 19.4187 41.5357ZM19.4187 27.419C17.3062 27.419 15.3562 28.0257 13.8937 29.1223C12.5125 30.149 11.7542 31.5023 11.7542 32.9257C11.7542 33.7423 11.9979 34.489 12.4854 35.189C13.7312 36.9623 16.3854 38.059 19.4187 38.059C22.4521 38.059 25.1062 36.9623 26.325 35.2123C26.8125 34.5357 27.0562 33.7657 27.0562 32.949C27.0562 31.5257 26.2979 30.1723 24.9166 29.1223C23.4812 28.0257 21.5312 27.419 19.4187 27.419Z" fill="black"/>
<path d="M19.4187 47.95C12.7291 47.95 7.69165 44.24 7.69165 39.34V32.9233C7.69165 27.9533 12.9458 23.9167 19.4187 23.9167C22.4791 23.9167 25.4041 24.8267 27.5979 26.46C29.8729 28.1867 31.1458 30.4733 31.1458 32.9233V39.34C31.1458 44.24 26.1083 47.95 19.4187 47.95ZM19.4187 27.4167C15.1937 27.4167 11.7542 29.89 11.7542 32.9233V39.34C11.7542 42.2567 15.0312 44.45 19.4187 44.45C23.8062 44.45 27.0833 42.2567 27.0833 39.34V32.9233C27.0833 31.5 26.325 30.1467 24.9437 29.0967C23.4812 28.0233 21.5312 27.4167 19.4187 27.4167ZM51.5667 34.5333C47.4771 34.5333 44.0104 31.92 43.6854 28.56C43.4687 26.6233 44.2812 24.7333 45.9062 23.3567C47.2604 22.1433 49.1833 21.4667 51.2146 21.4667H56.875C59.5562 21.5367 61.6146 23.3567 61.6146 25.5967V30.4033C61.6146 32.6433 59.5562 34.4633 56.9562 34.5333H51.5667ZM56.7937 24.9667H51.2416C50.2937 24.9667 49.4271 25.27 48.8041 25.83C48.0187 26.4833 47.6396 27.37 47.7479 28.2567C47.8833 29.7967 49.6166 31.0333 51.5667 31.0333H56.875C57.2271 31.0333 57.5521 30.7533 57.5521 30.4033V25.5967C57.5521 25.2467 57.2271 24.99 56.7937 24.9667Z" fill="black"/>
<path d="M43.3388 49.5833H36.5679C35.4575 49.5833 34.5367 48.79 34.5367 47.8333C34.5367 46.8767 35.4575 46.0833 36.5679 46.0833H43.3388C50.3263 46.0833 54.8492 42.1867 54.8492 36.1667V34.5333H51.5721C47.4825 34.5333 44.0159 31.92 43.6909 28.56C43.4742 26.6233 44.2867 24.7333 45.9117 23.3567C47.2659 22.1433 49.1888 21.4667 51.22 21.4667H54.8221V19.8333C54.8221 14.3733 51.1117 10.6167 45.0992 10.01C44.4492 9.91666 43.8804 9.91666 43.3117 9.91666H18.9367C18.2867 9.91666 17.6638 9.96332 17.0409 10.0333C11.0825 10.6867 7.42627 14.42 7.42627 19.8333V24.5C7.42627 25.4567 6.50544 26.25 5.39502 26.25C4.2846 26.25 3.36377 25.4567 3.36377 24.5V19.8333C3.36377 12.6467 8.5096 7.44332 16.4992 6.57999C17.2304 6.48666 18.07 6.41666 18.9367 6.41666H43.3117C43.9617 6.41666 44.8013 6.43999 45.6679 6.55666C53.6575 7.34999 58.8846 12.5767 58.8846 19.8333V23.2167C58.8846 24.1733 57.9638 24.9667 56.8534 24.9667H51.22C50.2721 24.9667 49.4054 25.27 48.7825 25.83C47.9971 26.4833 47.6179 27.37 47.7263 28.2567C47.8617 29.7967 49.595 31.0333 51.545 31.0333H56.8804C57.9909 31.0333 58.9117 31.8267 58.9117 32.7833V36.1667C58.9117 44.1933 52.6554 49.5833 43.3388 49.5833Z" fill="black"/>
</svg>
