<svg width="24" height="24" viewBox="0 0 24 24" fill="none" xmlns="http://www.w3.org/2000/svg">
<path d="M17 21.25H7C3.35 21.25 1.25 19.15 1.25 15.5V8.5C1.25 4.85 3.35 2.75 7 2.75H17C20.65 2.75 22.75 4.85 22.75 8.5V15.5C22.75 19.15 20.65 21.25 17 21.25ZM7 4.25C4.14 4.25 2.75 5.64 2.75 8.5V15.5C2.75 18.36 4.14 19.75 7 19.75H17C19.86 19.75 21.25 18.36 21.25 15.5V8.5C21.25 5.64 19.86 4.25 17 4.25H7Z" fill="black"/>
<path d="M11.9989 12.868C11.1589 12.868 10.3089 12.608 9.65895 12.078L6.52895 9.578C6.3834 9.45162 6.29226 9.27393 6.27453 9.08199C6.25681 8.89004 6.31387 8.69866 6.43381 8.54777C6.55376 8.39687 6.72733 8.2981 6.91832 8.27206C7.10931 8.24602 7.30299 8.29472 7.45895 8.408L10.5889 10.908C11.3489 11.518 12.6389 11.518 13.3989 10.908L16.5289 8.408C16.8489 8.148 17.3289 8.198 17.5789 8.528C17.839 8.848 17.7889 9.328 17.4589 9.578L14.3289 12.078C13.689 12.608 12.8389 12.868 11.9989 12.868Z" fill="black"/>
</svg>
