<svg width="65" height="56" viewBox="0 0 65 56" fill="none" xmlns="http://www.w3.org/2000/svg">
<path d="M36.7575 52.22C36.1346 52.22 35.5117 52.1267 34.9158 51.94C33.9317 51.6276 33.0835 51.061 32.4872 50.3176C31.8909 49.5742 31.5757 48.6903 31.5846 47.7867V32.7367H25.2471C23.1887 32.7367 21.4012 31.7333 20.5617 30.1233C19.7221 28.5133 20.0471 26.6933 21.4012 25.3633L41.9033 5.29667C43.3387 3.89667 45.5596 3.40667 47.5908 4.08334C49.6221 4.73667 50.9221 6.37001 50.9221 8.23667V23.2867H57.2596C59.3179 23.2867 61.1054 24.29 61.945 25.9C62.7846 27.51 62.4596 29.33 61.1054 30.66L40.6033 50.7267C39.6012 51.7067 38.1929 52.22 36.7575 52.22ZM45.7221 7.28001C45.4783 7.28001 45.1804 7.35001 44.9367 7.60667L24.4346 27.6967C24.0012 28.1167 24.1637 28.5367 24.245 28.7C24.3262 28.8633 24.5971 29.26 25.2471 29.26H33.6158C34.7262 29.26 35.6471 30.0533 35.6471 31.01V47.81C35.6471 48.3933 36.1346 48.6267 36.3512 48.6967C36.5679 48.7667 37.1096 48.8833 37.5429 48.44L58.045 28.35C58.4783 27.93 58.3158 27.51 58.2346 27.3467C58.1527 27.1771 58.0131 27.0329 57.8342 26.9329C57.6554 26.833 57.4456 26.782 57.2325 26.7867H48.8637C47.7533 26.7867 46.8325 25.9933 46.8325 25.0367V8.23667C46.8325 7.65334 46.345 7.42001 46.1283 7.35001C46.002 7.29742 45.8622 7.27333 45.7221 7.28001ZM23.0208 11.0833H4.0625C2.95208 11.0833 2.03125 10.29 2.03125 9.33334C2.03125 8.37667 2.95208 7.58334 4.0625 7.58334H23.0208C24.1312 7.58334 25.0521 8.37667 25.0521 9.33334C25.0521 10.29 24.1312 11.0833 23.0208 11.0833ZM20.3125 48.4167H4.0625C2.95208 48.4167 2.03125 47.6233 2.03125 46.6667C2.03125 45.71 2.95208 44.9167 4.0625 44.9167H20.3125C21.4229 44.9167 22.3438 45.71 22.3438 46.6667C22.3438 47.6233 21.4229 48.4167 20.3125 48.4167ZM12.1875 29.75H4.0625C2.95208 29.75 2.03125 28.9567 2.03125 28C2.03125 27.0433 2.95208 26.25 4.0625 26.25H12.1875C13.2979 26.25 14.2188 27.0433 14.2188 28C14.2188 28.9567 13.2979 29.75 12.1875 29.75Z" fill="black"/>
</svg>
