<svg width="65" height="56" viewBox="0 0 65 56" fill="none" xmlns="http://www.w3.org/2000/svg">
<path d="M59.5834 42.5833H40.6251C39.5147 42.5833 38.5938 41.79 38.5938 40.8333C38.5938 39.8767 39.5147 39.0833 40.6251 39.0833H59.5834C60.6938 39.0833 61.6147 39.8767 61.6147 40.8333C61.6147 41.79 60.6938 42.5833 59.5834 42.5833ZM13.5417 42.5833H5.41675C4.30633 42.5833 3.3855 41.79 3.3855 40.8333C3.3855 39.8767 4.30633 39.0833 5.41675 39.0833H13.5417C14.6522 39.0833 15.573 39.8767 15.573 40.8333C15.573 41.79 14.6522 42.5833 13.5417 42.5833ZM59.5834 16.9167H51.4584C50.348 16.9167 49.4272 16.1233 49.4272 15.1667C49.4272 14.21 50.348 13.4167 51.4584 13.4167H59.5834C60.6938 13.4167 61.6147 14.21 61.6147 15.1667C61.6147 16.1233 60.6938 16.9167 59.5834 16.9167ZM24.3751 16.9167H5.41675C4.30633 16.9167 3.3855 16.1233 3.3855 15.1667C3.3855 14.21 4.30633 13.4167 5.41675 13.4167H24.3751C25.4855 13.4167 26.4063 14.21 26.4063 15.1667C26.4063 16.1233 25.4855 16.9167 24.3751 16.9167Z" fill="black"/>
<path d="M35.2084 49.5833H18.9584C14.3001 49.5833 11.5105 47.18 11.5105 43.1667V38.5C11.5105 34.4867 14.3001 32.0833 18.9584 32.0833H35.2084C39.8668 32.0833 42.6563 34.4867 42.6563 38.5V43.1667C42.6563 47.18 39.8668 49.5833 35.2084 49.5833ZM18.9584 35.5833C16.548 35.5833 15.573 36.4233 15.573 38.5V43.1667C15.573 45.2433 16.548 46.0833 18.9584 46.0833H35.2084C37.6188 46.0833 38.5938 45.2433 38.5938 43.1667V38.5C38.5938 36.4233 37.6188 35.5833 35.2084 35.5833H18.9584ZM46.0418 23.9167H29.7917C25.1334 23.9167 22.3438 21.5133 22.3438 17.5V12.8333C22.3438 8.81999 25.1334 6.41666 29.7917 6.41666H46.0418C50.7001 6.41666 53.4897 8.81999 53.4897 12.8333V17.5C53.4897 21.5133 50.7001 23.9167 46.0418 23.9167ZM29.7917 9.91666C27.3813 9.91666 26.4063 10.7567 26.4063 12.8333V17.5C26.4063 19.5767 27.3813 20.4167 29.7917 20.4167H46.0418C48.4522 20.4167 49.4272 19.5767 49.4272 17.5V12.8333C49.4272 10.7567 48.4522 9.91666 46.0418 9.91666H29.7917Z" fill="black"/>
</svg>
