<svg width="22" height="22" viewBox="0 0 22 22" fill="none" xmlns="http://www.w3.org/2000/svg">
<path d="M5.75 9.5H3.75C1.33 9.5 0 8.17 0 5.75V3.75C0 1.33 1.33 0 3.75 0H5.75C8.17 0 9.5 1.33 9.5 3.75V5.75C9.5 8.17 8.17 9.5 5.75 9.5ZM3.75 1.5C2.17 1.5 1.5 2.17 1.5 3.75V5.75C1.5 7.33 2.17 8 3.75 8H5.75C7.33 8 8 7.33 8 5.75V3.75C8 2.17 7.33 1.5 5.75 1.5H3.75ZM17.75 9.5H15.75C13.33 9.5 12 8.17 12 5.75V3.75C12 1.33 13.33 0 15.75 0H17.75C20.17 0 21.5 1.33 21.5 3.75V5.75C21.5 8.17 20.17 9.5 17.75 9.5ZM15.75 1.5C14.17 1.5 13.5 2.17 13.5 3.75V5.75C13.5 7.33 14.17 8 15.75 8H17.75C19.33 8 20 7.33 20 5.75V3.75C20 2.17 19.33 1.5 17.75 1.5H15.75ZM17.75 21.5H15.75C13.33 21.5 12 20.17 12 17.75V15.75C12 13.33 13.33 12 15.75 12H17.75C20.17 12 21.5 13.33 21.5 15.75V17.75C21.5 20.17 20.17 21.5 17.75 21.5ZM15.75 13.5C14.17 13.5 13.5 14.17 13.5 15.75V17.75C13.5 19.33 14.17 20 15.75 20H17.75C19.33 20 20 19.33 20 17.75V15.75C20 14.17 19.33 13.5 17.75 13.5H15.75ZM5.75 21.5H3.75C1.33 21.5 0 20.17 0 17.75V15.75C0 13.33 1.33 12 3.75 12H5.75C8.17 12 9.5 13.33 9.5 15.75V17.75C9.5 20.17 8.17 21.5 5.75 21.5ZM3.75 13.5C2.17 13.5 1.5 14.17 1.5 15.75V17.75C1.5 19.33 2.17 20 3.75 20H5.75C7.33 20 8 19.33 8 17.75V15.75C8 14.17 7.33 13.5 5.75 13.5H3.75Z" fill="black"/>
</svg>
